<?xml version='1.0' encoding='UTF-8' standalone='no'?>
<svg height="864pt" viewBox="0 0 1440 864" width="1440pt" xmlns="http://www.w3.org/2000/svg" xmlns:xlink="http://www.w3.org/1999/xlink">
 <title>Figure 3</title>
 <desc>
Creator: GL2PS 1.4.2, (C) 1999-2020 C. Geuzaine
For: Octave
CreationDate: Mon Dec 29 22:42:13 2025
</desc>
 <defs/>
 <polygon fill="#ffffff" points="0,0 1440,0 1440,864 0,864"/>
 <g>
  <polygon fill="#ffffff" points="0,864 1440,864 1440,0 0,0" shape-rendering="crispEdges"/>
  <clipPath id="cp001440864">
   <polygon points="0,864 1440,864 1440,0 0,0"/>
  </clipPath>
  <g clip-path="url(#cp001440864)">
   <polygon fill="#ffffff" points="187.2,768.96 1303.2,768.96 1303.2,64.8 187.2,64.8" shape-rendering="crispEdges"/>
   <polyline fill="none" points="187.2,768.96 187.2,64.8" stroke="#262626" stroke-dasharray="16,0" stroke-linecap="butt" stroke-linejoin="miter" stroke-opacity="0.15" stroke-width="0.5"/>
   <polyline fill="none" points="466.2,768.96 466.2,64.8" stroke="#262626" stroke-dasharray="16,0" stroke-linecap="butt" stroke-linejoin="miter" stroke-opacity="0.15" stroke-width="0.5"/>
   <polyline fill="none" points="745.2,768.96 745.2,64.8" stroke="#262626" stroke-dasharray="16,0" stroke-linecap="butt" stroke-linejoin="miter" stroke-opacity="0.15" stroke-width="0.5"/>
   <polyline fill="none" points="1024.2,768.96 1024.2,64.8" stroke="#262626" stroke-dasharray="16,0" stroke-linecap="butt" stroke-linejoin="miter" stroke-opacity="0.15" stroke-width="0.5"/>
   <polyline fill="none" points="1303.2,768.96 1303.2,64.8" stroke="#262626" stroke-dasharray="16,0" stroke-linecap="butt" stroke-linejoin="miter" stroke-opacity="0.15" stroke-width="0.5"/>
   <polyline fill="none" points="187.2,768.96 187.2,757.797" stroke="#262626" stroke-linecap="butt" stroke-linejoin="miter" stroke-width="0.5"/>
   <polyline fill="none" points="187.2,64.8 187.2,75.9626" stroke="#262626" stroke-linecap="butt" stroke-linejoin="miter" stroke-width="0.5"/>
   <polyline fill="none" points="466.2,768.96 466.2,757.797" stroke="#262626" stroke-linecap="butt" stroke-linejoin="miter" stroke-width="0.5"/>
   <polyline fill="none" points="466.2,64.8 466.2,75.9626" stroke="#262626" stroke-linecap="butt" stroke-linejoin="miter" stroke-width="0.5"/>
   <polyline fill="none" points="745.2,768.96 745.2,757.797" stroke="#262626" stroke-linecap="butt" stroke-linejoin="miter" stroke-width="0.5"/>
   <polyline fill="none" points="745.2,64.8 745.2,75.9626" stroke="#262626" stroke-linecap="butt" stroke-linejoin="miter" stroke-width="0.5"/>
   <polyline fill="none" points="1024.2,768.96 1024.2,757.797" stroke="#262626" stroke-linecap="butt" stroke-linejoin="miter" stroke-width="0.5"/>
   <polyline fill="none" points="1024.2,64.8 1024.2,75.9626" stroke="#262626" stroke-linecap="butt" stroke-linejoin="miter" stroke-width="0.5"/>
   <polyline fill="none" points="1303.2,768.96 1303.2,757.797" stroke="#262626" stroke-linecap="butt" stroke-linejoin="miter" stroke-width="0.5"/>
   <polyline fill="none" points="1303.2,64.8 1303.2,75.9626" stroke="#262626" stroke-linecap="butt" stroke-linejoin="miter" stroke-width="0.5"/>
   <g font-family="'Liberation Sans'" font-size="10" font-style="normal" font-weight="normal" transform="translate(184.2,784.462) rotate(-0,3,-8)" xml:space="preserve">
    <text fill="rgb(38,38,38)" x="0 " y="-0">0</text>
   </g>
   <g font-family="'Liberation Sans'" font-size="10" font-style="normal" font-weight="normal" transform="translate(460.2,784.462) rotate(-0,6,-8)" xml:space="preserve">
    <text fill="rgb(38,38,38)" x="0 6 " y="-0">50</text>
   </g>
   <g font-family="'Liberation Sans'" font-size="10" font-style="normal" font-weight="normal" transform="translate(736.2,784.462) rotate(-0,9,-8)" xml:space="preserve">
    <text fill="rgb(38,38,38)" x="0 6 12 " y="-0">100</text>
   </g>
   <g font-family="'Liberation Sans'" font-size="10" font-style="normal" font-weight="normal" transform="translate(1015.2,784.462) rotate(-0,9,-8)" xml:space="preserve">
    <text fill="rgb(38,38,38)" x="0 6 12 " y="-0">150</text>
   </g>
   <g font-family="'Liberation Sans'" font-size="10" font-style="normal" font-weight="normal" transform="translate(1294.2,784.462) rotate(-0,9,-8)" xml:space="preserve">
    <text fill="rgb(38,38,38)" x="0 6 12 " y="-0">200</text>
   </g>
   <polyline fill="none" points="187.2,768.96 1303.2,768.96" stroke="#262626" stroke-dasharray="16,0" stroke-linecap="butt" stroke-linejoin="miter" stroke-opacity="0.15" stroke-width="0.5"/>
   <polyline fill="none" points="187.2,668.366 1303.2,668.366" stroke="#262626" stroke-dasharray="16,0" stroke-linecap="butt" stroke-linejoin="miter" stroke-opacity="0.15" stroke-width="0.5"/>
   <polyline fill="none" points="187.2,567.771 1303.2,567.771" stroke="#262626" stroke-dasharray="16,0" stroke-linecap="butt" stroke-linejoin="miter" stroke-opacity="0.15" stroke-width="0.5"/>
   <polyline fill="none" points="187.2,467.177 1303.2,467.177" stroke="#262626" stroke-dasharray="16,0" stroke-linecap="butt" stroke-linejoin="miter" stroke-opacity="0.15" stroke-width="0.5"/>
   <polyline fill="none" points="187.2,366.583 1303.2,366.583" stroke="#262626" stroke-dasharray="16,0" stroke-linecap="butt" stroke-linejoin="miter" stroke-opacity="0.15" stroke-width="0.5"/>
   <polyline fill="none" points="187.2,265.989 1303.2,265.989" stroke="#262626" stroke-dasharray="16,0" stroke-linecap="butt" stroke-linejoin="miter" stroke-opacity="0.15" stroke-width="0.5"/>
   <polyline fill="none" points="187.2,165.394 1303.2,165.394" stroke="#262626" stroke-dasharray="16,0" stroke-linecap="butt" stroke-linejoin="miter" stroke-opacity="0.15" stroke-width="0.5"/>
   <polyline fill="none" points="187.2,64.8 1303.2,64.8" stroke="#262626" stroke-dasharray="16,0" stroke-linecap="butt" stroke-linejoin="miter" stroke-opacity="0.15" stroke-width="0.5"/>
   <polyline fill="none" points="187.2,768.96 198.36,768.96" stroke="#262626" stroke-linecap="butt" stroke-linejoin="miter" stroke-width="0.5"/>
   <polyline fill="none" points="1303.2,768.96 1292.04,768.96" stroke="#262626" stroke-linecap="butt" stroke-linejoin="miter" stroke-width="0.5"/>
   <polyline fill="none" points="187.2,668.366 198.36,668.366" stroke="#262626" stroke-linecap="butt" stroke-linejoin="miter" stroke-width="0.5"/>
   <polyline fill="none" points="1303.2,668.366 1292.04,668.366" stroke="#262626" stroke-linecap="butt" stroke-linejoin="miter" stroke-width="0.5"/>
   <polyline fill="none" points="187.2,567.771 198.36,567.771" stroke="#262626" stroke-linecap="butt" stroke-linejoin="miter" stroke-width="0.5"/>
   <polyline fill="none" points="1303.2,567.771 1292.04,567.771" stroke="#262626" stroke-linecap="butt" stroke-linejoin="miter" stroke-width="0.5"/>
   <polyline fill="none" points="187.2,467.177 198.36,467.177" stroke="#262626" stroke-linecap="butt" stroke-linejoin="miter" stroke-width="0.5"/>
   <polyline fill="none" points="1303.2,467.177 1292.04,467.177" stroke="#262626" stroke-linecap="butt" stroke-linejoin="miter" stroke-width="0.5"/>
   <polyline fill="none" points="187.2,366.583 198.36,366.583" stroke="#262626" stroke-linecap="butt" stroke-linejoin="miter" stroke-width="0.5"/>
   <polyline fill="none" points="1303.2,366.583 1292.04,366.583" stroke="#262626" stroke-linecap="butt" stroke-linejoin="miter" stroke-width="0.5"/>
   <polyline fill="none" points="187.2,265.989 198.36,265.989" stroke="#262626" stroke-linecap="butt" stroke-linejoin="miter" stroke-width="0.5"/>
   <polyline fill="none" points="1303.2,265.989 1292.04,265.989" stroke="#262626" stroke-linecap="butt" stroke-linejoin="miter" stroke-width="0.5"/>
   <polyline fill="none" points="187.2,165.394 198.36,165.394" stroke="#262626" stroke-linecap="butt" stroke-linejoin="miter" stroke-width="0.5"/>
   <polyline fill="none" points="1303.2,165.394 1292.04,165.394" stroke="#262626" stroke-linecap="butt" stroke-linejoin="miter" stroke-width="0.5"/>
   <polyline fill="none" points="187.2,64.8 198.36,64.8" stroke="#262626" stroke-linecap="butt" stroke-linejoin="miter" stroke-width="0.5"/>
   <polyline fill="none" points="1303.2,64.8 1292.04,64.8" stroke="#262626" stroke-linecap="butt" stroke-linejoin="miter" stroke-width="0.5"/>
   <g font-family="'Liberation Sans'" font-size="10" font-style="normal" font-weight="normal" transform="translate(164.2,772.96) rotate(-0,18,-4)" xml:space="preserve">
    <text fill="rgb(38,38,38)" x="0 6 12 " y="-0">170</text>
   </g>
   <g font-family="'Liberation Sans'" font-size="10" font-style="normal" font-weight="normal" transform="translate(164.2,672.366) rotate(-0,18,-4)" xml:space="preserve">
    <text fill="rgb(38,38,38)" x="0 6 12 " y="-0">180</text>
   </g>
   <g font-family="'Liberation Sans'" font-size="10" font-style="normal" font-weight="normal" transform="translate(164.2,571.771) rotate(-0,18,-4)" xml:space="preserve">
    <text fill="rgb(38,38,38)" x="0 6 12 " y="-0">190</text>
   </g>
   <g font-family="'Liberation Sans'" font-size="10" font-style="normal" font-weight="normal" transform="translate(164.2,471.177) rotate(-0,18,-4)" xml:space="preserve">
    <text fill="rgb(38,38,38)" x="0 6 12 " y="-0">200</text>
   </g>
   <g font-family="'Liberation Sans'" font-size="10" font-style="normal" font-weight="normal" transform="translate(164.2,370.583) rotate(-0,18,-4)" xml:space="preserve">
    <text fill="rgb(38,38,38)" x="0 6 12 " y="-0">210</text>
   </g>
   <g font-family="'Liberation Sans'" font-size="10" font-style="normal" font-weight="normal" transform="translate(164.2,269.989) rotate(-0,18,-4)" xml:space="preserve">
    <text fill="rgb(38,38,38)" x="0 6 12 " y="-0">220</text>
   </g>
   <g font-family="'Liberation Sans'" font-size="10" font-style="normal" font-weight="normal" transform="translate(164.2,169.394) rotate(-0,18,-4)" xml:space="preserve">
    <text fill="rgb(38,38,38)" x="0 6 12 " y="-0">230</text>
   </g>
   <g font-family="'Liberation Sans'" font-size="10" font-style="normal" font-weight="normal" transform="translate(164.2,68.8) rotate(-0,18,-4)" xml:space="preserve">
    <text fill="rgb(38,38,38)" x="0 6 12 " y="-0">240</text>
   </g>
   <polyline fill="none" points="187.2,768.96 1303.2,768.96" stroke="#262626" stroke-dasharray="16,0" stroke-linecap="square" stroke-linejoin="miter" stroke-width="0.5"/>
   <polyline fill="none" points="187.2,64.8 1303.2,64.8" stroke="#262626" stroke-dasharray="16,0" stroke-linecap="square" stroke-linejoin="miter" stroke-width="0.5"/>
   <polyline fill="none" points="187.2,768.96 187.2,64.8" stroke="#262626" stroke-dasharray="16,0" stroke-linecap="square" stroke-linejoin="miter" stroke-width="0.5"/>
   <polyline fill="none" points="1303.2,768.96 1303.2,64.8" stroke="#262626" stroke-dasharray="16,0" stroke-linecap="square" stroke-linejoin="miter" stroke-width="0.5"/>
   <g font-family="'Liberation Sans'" font-size="11" font-style="normal" font-weight="normal" transform="translate(685.2,800.462) rotate(-0,60,-11)" xml:space="preserve">
    <text fill="rgb(38,38,38)" x="0 7 13 19 27 33 36 40 45 51 57 61 67 73 81 87 90 96 102 108 116 " y="-2">Время (торговые часы)</text>
   </g>
   <g font-family="'Liberation Sans'" font-size="11" font-style="normal" font-weight="normal" transform="translate(129.7,416.88) rotate(-90,29.5,0)" xml:space="preserve">
    <text fill="rgb(38,38,38)" x="0 8 14 20 26 29 33 40 46 52 55 " y="-2">Цена (Руб.)</text>
   </g>
   <g font-family="'Liberation Sans'" font-size="11" font-style="normal" font-weight="bold" transform="translate(645.7,54.8) rotate(-0,99.5,0)" xml:space="preserve">
    <text fill="rgb(0,0,0)" x="0 8 13 20 26 34 41 48 54 61 68 74 77 83 90 95 102 109 116 123 130 136 139 147 154 160 167 174 180 187 193 " y="-2">Сглаживание котировок Сбербанка</text>
   </g>
   <polyline fill="none" points="187.2,80.8951 192.78,80.8951 198.36,86.126 203.94,105.34 209.52,150.607 215.1,178.27 220.68,172.436 226.26,186.418 231.84,183.803 237.42,128.677 243,118.517 248.58,114.795 254.16,123.748 259.74,118.92 265.32,106.345 270.9,105.44 276.48,126.263 282.06,98.7002 287.64,125.157 293.22,118.115 298.8,107.05 304.38,116.304 309.96,116.103 315.54,103.026 321.12,114.896 326.7,117.612 332.28,112.381 337.86,93.2682 343.44,107.251 349.02,124.855 354.6,126.464 360.18,129.784 365.76,131.595 371.34,146.583 376.92,152.418 382.5,141.956 388.08,199.596 393.66,237.42 399.24,255.929 404.82,256.331 410.4,284.8 415.98,272.527 421.56,255.024 427.14,269.107 432.72,266.089 438.3,520.09 443.88,532.765 449.46,480.958 455.04,395.353 460.62,367.488 466.2,401.087 471.78,356.825 477.36,443.135 482.94,455.106 488.52,440.017 494.1,456.816 499.68,483.172 505.26,464.864 510.84,476.331 516.42,540.41 522,493.734 527.58,510.835 533.16,522.202 538.74,649.655 544.32,649.454 549.9,665.348 555.48,672.088 561.06,658.709 566.64,662.33 572.22,696.029 577.8,686.573 583.38,709.509 588.96,585.577 594.54,622.897 600.12,594.228 605.7,578.032 611.28,489.61 616.86,510.634 622.44,527.534 628.02,487.296 633.6,481.26 639.18,518.48 644.76,544.434 650.34,562.641 655.92,544.434 661.5,596.642 667.08,594.328 672.66,558.617 678.24,520.693 683.82,508.924 689.4,457.721 694.98,573.405 700.56,583.766 706.14,563.245 711.72,581.553 717.3,588.796 722.88,602.577 728.46,616.56 734.04,628.027 739.62,681.544 745.2,690.798 750.78,693.716 756.36,687.982 761.94,695.727 767.52,716.752 773.1,702.467 778.68,703.272 784.26,726.006 789.84,685.97 795.42,603.483 801,609.418 806.58,612.838 812.16,640.501 817.74,620.282 823.32,625.11 828.9,606.802 834.48,572.701 840.06,491.722 845.64,457.822 851.22,467.177 856.8,499.87 862.38,480.757 867.96,528.54 873.54,537.291 879.12,496.249 884.7,510.533 890.28,607.003 895.86,638.389 901.44,628.027 907.02,613.24 912.6,608.21 918.18,573.203 923.76,586.281 929.34,614.447 934.92,634.466 940.5,568.476 946.08,555.801 951.66,557.712 957.24,552.682 962.82,552.381 968.4,545.439 973.98,537.794 979.56,529.344 985.14,541.215 990.72,458.627 996.3,473.313 1001.88,488.201 1007.46,569.18 1013.04,556.606 1018.62,562.742 1024.2,592.015 1029.78,598.654 1035.36,587.086 1040.94,626.116 1046.52,610.826 1052.1,617.566 1057.68,612.435 1063.26,603.684 1068.84,603.986 1074.42,584.571 1080,570.487 1085.58,587.186 1091.16,607.305 1096.74,607.305 1102.32,620.382 1107.9,616.761 1113.48,625.714 1119.06,637.483 1124.64,638.691 1130.22,657.803 1135.8,664.543 1141.38,687.68 1146.96,679.029 1152.54,656.798 1158.12,652.572 1163.7,670.478 1169.28,640.702 1174.86,651.164 1180.44,649.756 1186.02,638.188 1191.6,594.932 1197.18,590.807 1202.76,591.109 1208.34,605.494 1213.92,612.637 1219.5,610.423 1225.08,622.193 1230.66,599.459 1236.24,595.837" stroke="#cccccc" stroke-linecap="butt" stroke-linejoin="round" stroke-width="2"/>
   <polyline fill="none" points="187.2,80.8951 192.78,80.8951 198.36,81.1753 203.94,82.7248 209.52,87.5273 215.1,95.6422 220.68,104.019 226.26,111.963 231.84,119.652 237.42,123.446 243,123.452 248.58,122.734 254.16,122.379 259.74,122.264 265.32,121.239 270.9,119.624 276.48,119.248 282.06,118.51 287.64,117.843 293.22,118.235 298.8,117.63 304.38,117.013 309.96,116.928 315.54,116.141 321.12,115.397 326.7,115.49 332.28,115.433 337.86,114.088 343.44,112.648 349.02,113.023 354.6,114.353 360.18,115.805 365.76,117.372 371.34,119.67 376.92,122.813 382.5,125.366 388.08,130.197 393.66,139.521 399.24,150.807 404.82,161.884 410.4,173.34 415.98,184.404 421.56,192.734 427.14,200.039 432.72,207.14 438.3,226.942 443.88,258.448 449.46,284.521 455.04,300.594 460.62,309.067 466.2,317.01 471.78,323.481 477.36,331.61 482.94,343.979 488.52,354.857 494.1,364.712 499.68,375.809 505.26,386.119 510.84,395.014 516.42,406.997 522,418.527 527.58,427.352 533.16,436.74 538.74,452.553 544.32,473.269 549.9,492.648 555.48,511.17 561.06,527.376 566.64,541.381 572.22,555.905 577.8,570.134 583.38,583.607 588.96,590.21 594.54,591.721 600.12,593.464 605.7,592.677 611.28,586.402 616.86,577.349 622.44,571.239 628.02,564.487 633.6,556.047 639.18,550.175 644.76,548.232 650.34,548.808 655.92,549.287 661.5,551.573 667.08,556.189 672.66,558.287 678.24,556.291 683.82,551.917 689.4,544.654 694.98,541.707 700.56,545.595 706.14,548.51 711.72,551.04 717.3,554.637 722.88,558.967 728.46,564.302 734.04,570.412 739.62,579.337 745.2,590.58 750.78,601.276 756.36,610.69 761.94,619.232 767.52,628.403 773.1,636.928 778.68,643.864 784.26,651.329 789.84,657.038 795.42,655.663 801,650.493 806.58,646.357 812.16,644.314 817.74,642.83 823.32,640.717 828.9,638.095 834.48,632.978 840.06,622.303 845.64,606.755 851.22,591.594 856.8,580.261 862.38,570.784 867.96,563.876 873.54,560.628 879.12,555.976 884.7,550.46 890.28,551.428 895.86,558.953 901.44,566.752 907.02,572.403 912.6,576.429 918.18,577.896 923.76,578.103 929.34,580.471 934.92,585.116 940.5,586.772 946.08,584.169 951.66,581.288 957.24,578.54 962.82,575.804 968.4,572.969 973.98,569.665 979.56,565.861 985.14,562.656 990.72,555.979 996.3,546.528 1001.88,539.626 1007.46,538.555 1013.04,541.102 1018.62,543.061 1024.2,546.698 1029.78,551.819 1035.36,556.125 1040.94,561.471 1046.52,567.45 1052.1,572.373 1057.68,576.85 1063.26,580.124 1068.84,582.617 1074.42,583.825 1080,583.149 1085.58,582.712 1091.16,584.26 1096.74,586.683 1102.32,589.552 1107.9,592.6 1113.48,595.621 1119.06,599.416 1124.64,603.483 1130.22,608.209 1135.8,613.786 1141.38,620.362 1146.96,626.978 1152.54,631.261 1158.12,633.721 1163.7,636.662 1169.28,638.623 1174.86,639.402 1180.44,640.564 1186.02,640.911 1191.6,638.308 1197.18,633.526 1202.76,629.049 1208.34,625.83 1213.92,624.074 1219.5,622.753 1225.08,622.086 1230.66,620.88 1236.24,618.434" stroke="#d85218" stroke-linecap="butt" stroke-linejoin="round" stroke-width="2"/>
   <polyline fill="none" points="187.2,80.8951 192.78,80.8951 198.36,80.9528 203.94,81.2785 209.52,82.3064 215.1,84.1125 220.68,86.1175 226.26,88.1688 231.84,90.2992 237.42,91.7463 243,92.4458 248.58,92.9777 254.16,93.5559 259.74,94.1661 265.32,94.5715 270.9,94.8203 276.48,95.2834 282.06,95.6603 287.64,96.0188 293.22,96.5815 298.8,96.9328 304.38,97.257 309.96,97.6735 315.54,97.9343 321.12,98.1772 326.7,98.5746 332.28,98.9352 337.86,99.0199 343.44,99.0477 349.02,99.4222 354.6,99.9988 360.18,100.617 365.76,101.278 371.34,102.11 376.92,103.152 382.5,104.119 388.08,105.586 393.66,108.069 399.24,111.116 404.82,114.303 410.4,117.739 415.98,121.275 421.56,124.406 427.14,127.432 432.72,130.512 438.3,136.293 443.88,144.868 449.46,152.821 455.04,159.089 460.62,163.974 466.2,168.817 471.78,173.433 477.36,178.416 482.94,184.365 488.52,190.149 494.1,195.826 499.68,201.852 505.26,207.833 510.84,213.608 516.42,220.089 522,226.614 527.58,232.673 533.16,238.911 538.74,246.543 544.32,255.4 549.9,264.235 555.48,273.125 561.06,281.746 566.64,290.07 572.22,298.623 577.8,307.253 583.38,315.842 588.96,323.127 594.54,329.306 600.12,335.442 605.7,340.951 611.28,345.186 616.86,348.592 622.44,352.34 628.02,355.746 633.6,358.571 639.18,361.678 644.76,365.41 650.34,369.545 655.92,373.588 661.5,377.918 667.08,382.7 672.66,386.957 678.24,390.311 683.82,393.047 689.4,395.029 694.98,397.683 700.56,401.659 706.14,405.435 711.72,409.105 717.3,412.974 722.88,416.99 728.46,421.223 734.04,425.643 739.62,430.681 745.2,436.296 750.78,441.922 756.36,447.392 761.94,452.765 767.52,458.336 773.1,463.858 778.68,469.111 784.26,474.508 789.84,479.594 795.42,483.219 801,485.928 806.58,488.68 812.16,491.713 817.74,494.76 823.32,497.572 828.9,500.173 834.48,502.14 840.06,502.798 845.64,502.181 851.22,501.309 856.8,500.919 862.38,500.685 867.96,500.774 873.54,501.481 879.12,501.816 884.7,501.851 890.28,503.106 895.86,505.735 901.44,508.536 907.02,510.999 912.6,513.191 918.18,514.893 923.76,516.319 929.34,518.167 934.92,520.504 940.5,522.28 946.08,523.156 951.66,523.894 957.24,524.582 962.82,525.196 968.4,525.717 973.98,526.066 979.56,526.231 985.14,526.43 990.72,525.844 996.3,524.529 1001.88,523.568 1007.46,523.683 1013.04,524.544 1018.62,525.317 1024.2,526.462 1029.78,527.976 1035.36,529.402 1040.94,531.1 1046.52,533.02 1052.1,534.804 1057.68,536.566 1063.26,538.137 1068.84,539.581 1074.42,540.782 1080,541.589 1085.58,542.408 1091.16,543.615 1096.74,545.014 1102.32,546.527 1107.9,548.111 1113.48,549.718 1119.06,551.518 1124.64,553.421 1130.22,555.505 1135.8,557.828 1141.38,560.428 1146.96,563.13 1152.54,565.432 1158.12,567.393 1163.7,569.462 1169.28,571.354 1174.86,572.994 1180.44,574.696 1186.02,576.218 1191.6,577.103 1197.18,577.449 1202.76,577.746 1208.34,578.198 1213.92,578.877 1219.5,579.594 1225.08,580.402 1230.66,581.07 1236.24,581.434" stroke="#ecb01f" stroke-linecap="butt" stroke-linejoin="round" stroke-width="2"/>
   <polyline fill="none" points="187.2,80.8951 192.78,80.8951 198.36,80.9095 203.94,80.9918 209.52,81.2521 215.1,81.7131 220.68,82.2321 226.26,82.7705 231.84,83.3374 237.42,83.7411 243,83.9618 248.58,84.1431 254.16,84.3377 259.74,84.5427 265.32,84.6982 270.9,84.8156 276.48,84.9876 282.06,85.1398 287.64,85.2884 293.22,85.4896 298.8,85.6398 304.38,85.7842 309.96,85.9525 315.54,86.0835 321.12,86.21 326.7,86.3766 332.28,86.5353 337.86,86.6252 343.44,86.7009 349.02,86.8636 354.6,87.0785 360.18,87.3059 365.76,87.5463 371.34,87.832 376.92,88.1735 382.5,88.5004 388.08,88.9565 393.66,89.6744 399.24,90.5441 404.82,91.4614 410.4,92.4539 415.98,93.4855 421.56,94.4287 427.14,95.3575 432.72,96.3119 438.3,97.9568 443.88,100.33 449.46,102.583 455.04,104.442 460.62,105.976 466.2,107.518 471.78,109.022 477.36,110.634 482.94,112.509 488.52,114.365 494.1,116.216 499.68,118.176 505.26,120.147 510.84,122.089 516.42,124.229 522,126.406 527.58,128.488 533.16,130.638 538.74,133.16 544.32,136.021 549.9,138.91 555.48,141.845 561.06,144.746 566.64,147.603 572.22,150.548 577.8,153.544 583.38,156.561 588.96,159.281 594.54,161.746 600.12,164.221 605.7,166.559 611.28,168.593 616.86,170.43 622.44,172.361 628.02,174.217 633.6,175.935 639.18,177.73 644.76,179.69 650.34,181.761 655.92,183.821 661.5,185.963 667.08,188.232 672.66,190.383 678.24,192.318 683.82,194.104 689.4,195.707 694.98,197.479 700.56,199.591 706.14,201.662 711.72,203.716 717.3,205.829 722.88,207.989 728.46,210.214 734.04,212.497 739.62,214.947 745.2,217.558 750.78,220.188 756.36,222.796 761.94,225.394 767.52,228.058 773.1,230.726 778.68,233.342 784.26,236.008 789.84,238.612 795.42,240.862 801,242.887 806.58,244.927 812.16,247.042 817.74,249.166 823.32,251.235 828.9,253.256 834.48,255.12 840.06,256.655 845.64,257.863 851.22,258.997 856.8,260.241 862.38,261.516 867.96,262.863 873.54,264.359 879.12,265.757 884.7,267.074 890.28,268.69 895.86,270.652 901.44,272.66 907.02,274.588 912.6,276.45 918.18,278.191 923.76,279.862 929.34,281.637 934.92,283.537 940.5,285.298 946.08,286.832 951.66,288.327 957.24,289.806 962.82,291.261 968.4,292.689 973.98,294.068 979.56,295.394 985.14,296.724 990.72,297.849 996.3,298.78 1001.88,299.789 1007.46,301.057 1013.04,302.508 1018.62,303.932 1024.2,305.447 1029.78,307.053 1035.36,308.637 1040.94,310.288 1046.52,311.995 1052.1,313.669 1057.68,315.339 1063.26,316.96 1068.84,318.55 1074.42,320.077 1080,321.504 1085.58,322.929 1091.16,324.449 1096.74,326.016 1102.32,327.611 1107.9,329.223 1113.48,330.841 1119.06,332.507 1124.64,334.2 1130.22,335.94 1135.8,337.742 1141.38,339.616 1146.96,341.521 1152.54,343.329 1158.12,345.054 1163.7,346.807 1169.28,348.518 1174.86,350.166 1180.44,351.829 1186.02,353.448 1191.6,354.905 1197.18,356.224 1202.76,357.524 1208.34,358.858 1213.92,360.244 1219.5,361.636 1225.08,363.047 1230.66,364.42 1236.24,365.712" stroke="#7d2e8d" stroke-linecap="butt" stroke-linejoin="round" stroke-width="2"/>
   <polyline fill="none" points="187.2,80.8951 192.78,80.8951 198.36,80.8999 203.94,80.9275 209.52,81.0144 215.1,81.1689 220.68,81.343 226.26,81.5245 231.84,81.7162 237.42,81.8541 243,81.9313 248.58,81.9955 254.16,82.0646 259.74,82.1371 265.32,82.1935 270.9,82.2374 276.48,82.2996 282.06,82.3555 287.64,82.4102 293.22,82.4827 298.8,82.5386 304.38,82.5923 309.96,82.6545 315.54,82.7042 321.12,82.753 326.7,82.815 332.28,82.8743 337.86,82.9114 343.44,82.9434 349.02,83.0048 354.6,83.0836 360.18,83.1669 365.76,83.2548 371.34,83.3582 376.92,83.4806 382.5,83.5984 388.08,83.7597 393.66,84.009 399.24,84.3099 404.82,84.6279 410.4,84.9717 415.98,85.3302 421.56,85.6604 427.14,85.9867 432.72,86.3227 438.3,86.8904 443.88,87.7037 449.46,88.479 455.04,89.126 460.62,89.6667 466.2,90.2119 471.78,90.7462 477.36,91.3182 482.94,91.9803 488.52,92.6382 494.1,93.2964 499.68,93.9933 505.26,94.6963 510.84,95.3917 516.42,96.156 522,96.9346 527.58,97.6847 533.16,98.4596 538.74,99.3615 544.32,100.379 549.9,101.41 555.48,102.46 561.06,103.501 566.64,104.532 572.22,105.595 577.8,106.679 583.38,107.773 588.96,108.771 594.54,109.688 600.12,110.611 605.7,111.491 611.28,112.272 616.86,112.99 622.44,113.741 628.02,114.469 633.6,115.153 639.18,115.865 644.76,116.634 650.34,117.442 655.92,118.249 661.5,119.086 667.08,119.968 672.66,120.812 678.24,121.587 683.82,122.315 689.4,122.982 694.98,123.709 700.56,124.55 706.14,125.381 711.72,126.208 717.3,127.057 722.88,127.924 728.46,128.815 734.04,129.728 739.62,130.7 745.2,131.728 750.78,132.765 756.36,133.797 761.94,134.829 767.52,135.887 773.1,136.948 778.68,137.995 784.26,139.062 789.84,140.111 795.42,141.044 801,141.906 806.58,142.774 812.16,143.669 817.74,144.569 823.32,145.454 828.9,146.325 834.48,147.145 840.06,147.857 845.64,148.462 851.22,149.043 856.8,149.662 862.38,150.292 867.96,150.948 873.54,151.655 879.12,152.33 884.7,152.98 890.28,153.731 895.86,154.598 901.44,155.484 907.02,156.344 912.6,157.185 918.18,157.987 923.76,158.767 929.34,159.584 934.92,160.444 940.5,161.26 946.08,162.002 951.66,162.733 957.24,163.458 962.82,164.178 968.4,164.89 973.98,165.587 979.56,166.268 985.14,166.951 990.72,167.567 996.3,168.119 1001.88,168.697 1007.46,169.363 1013.04,170.091 1018.62,170.812 1024.2,171.564 1029.78,172.348 1035.36,173.126 1040.94,173.928 1046.52,174.751 1052.1,175.564 1057.68,176.377 1063.26,177.176 1068.84,177.965 1074.42,178.735 1080,179.473 1085.58,180.212 1091.16,180.983 1096.74,181.772 1102.32,182.572 1107.9,183.378 1113.48,184.188 1119.06,185.016 1124.64,185.854 1130.22,186.71 1135.8,187.588 1141.38,188.492 1146.96,189.407 1152.54,190.292 1158.12,191.152 1163.7,192.022 1169.28,192.879 1174.86,193.718 1180.44,194.563 1186.02,195.394 1191.6,196.173 1197.18,196.907 1202.76,197.636 1208.34,198.378 1213.92,199.138 1219.5,199.901 1225.08,200.671 1230.66,201.43 1236.24,202.163" stroke="#76ab2f" stroke-linecap="butt" stroke-linejoin="round" stroke-width="2"/>
   <polyline fill="none" points="187.2,80.8951 192.78,80.8951 198.36,80.8962 203.94,80.9032 209.52,80.925 215.1,80.9636 220.68,81.0074 226.26,81.0527 231.84,81.101 237.42,81.136 243,81.1555 248.58,81.172 254.16,81.1895 259.74,81.2081 265.32,81.2227 270.9,81.234 276.48,81.2501 282.06,81.2647 287.64,81.2787 293.22,81.2975 298.8,81.3119 304.38,81.3261 309.96,81.3422 315.54,81.3551 321.12,81.3679 326.7,81.384 332.28,81.3997 337.86,81.4095 343.44,81.4184 349.02,81.4344 354.6,81.4548 360.18,81.4764 365.76,81.4991 371.34,81.5259 376.92,81.5574 382.5,81.5877 388.08,81.6291 393.66,81.6923 399.24,81.7688 404.82,81.8495 410.4,81.9369 415.98,82.0279 421.56,82.1119 427.14,82.1952 432.72,82.2811 438.3,82.4249 443.88,82.6304 449.46,82.8268 455.04,82.9911 460.62,83.1293 466.2,83.2686 471.78,83.4056 477.36,83.5522 482.94,83.7214 488.52,83.8896 494.1,84.0584 499.68,84.237 505.26,84.4177 510.84,84.5963 516.42,84.7924 522,84.9924 527.58,85.1856 533.16,85.3852 538.74,85.6169 544.32,85.8779 549.9,86.1426 555.48,86.412 561.06,86.6801 566.64,86.9458 572.22,87.22 577.8,87.4995 583.38,87.7819 588.96,88.0411 594.54,88.28 600.12,88.5211 605.7,88.7511 611.28,88.9572 616.86,89.1475 622.44,89.3467 628.02,89.5401 633.6,89.7226 639.18,89.9125 644.76,90.1171 650.34,90.3315 655.92,90.5458 661.5,90.768 667.08,91.0016 672.66,91.2263 678.24,91.4338 683.82,91.6299 689.4,91.8112 694.98,92.0073 700.56,92.2324 706.14,92.4553 711.72,92.6774 717.3,92.9054 722.88,93.1379 728.46,93.3771 734.04,93.6218 739.62,93.8816 745.2,94.1558 750.78,94.4326 756.36,94.7087 761.94,94.9851 767.52,95.2679 773.1,95.5524 778.68,95.8334 784.26,96.1199 789.84,96.4022 795.42,96.6559 801,96.892 806.58,97.1299 812.16,97.3751 817.74,97.6218 823.32,97.8647 828.9,98.1045 834.48,98.3321 840.06,98.533 845.64,98.7072 851.22,98.8755 856.8,99.0535 862.38,99.2346 867.96,99.4222 873.54,99.6229 879.12,99.8161 884.7,100.003 890.28,100.215 895.86,100.457 901.44,100.703 907.02,100.944 912.6,101.18 918.18,101.407 923.76,101.628 929.34,101.859 934.92,102.101 940.5,102.332 946.08,102.545 951.66,102.755 957.24,102.964 962.82,103.173 968.4,103.379 973.98,103.582 979.56,103.781 985.14,103.98 990.72,104.164 996.3,104.331 1001.88,104.505 1007.46,104.702 1013.04,104.914 1018.62,105.124 1024.2,105.343 1029.78,105.57 1035.36,105.795 1040.94,106.027 1046.52,106.264 1052.1,106.499 1057.68,106.735 1063.26,106.967 1068.84,107.197 1074.42,107.422 1080,107.64 1085.58,107.858 1091.16,108.084 1096.74,108.315 1102.32,108.549 1107.9,108.785 1113.48,109.023 1119.06,109.265 1124.64,109.509 1130.22,109.759 1135.8,110.014 1141.38,110.276 1146.96,110.541 1152.54,110.799 1158.12,111.051 1163.7,111.306 1169.28,111.557 1174.86,111.805 1180.44,112.054 1186.02,112.301 1191.6,112.534 1197.18,112.756 1202.76,112.978 1208.34,113.202 1213.92,113.432 1219.5,113.662 1225.08,113.895 1230.66,114.125 1236.24,114.349" stroke="#4cbded" stroke-linecap="butt" stroke-linejoin="round" stroke-width="2"/>
  </g>
  <clipPath id="cp001440864">
   <polygon points="0,864 1440,864 1440,0 0,0"/>
  </clipPath>
  <g clip-path="url(#cp001440864)">
   <polygon fill="#ffffff" points="195.197,160.784 303.182,160.784 303.182,72.7965 195.197,72.7965" shape-rendering="crispEdges"/>
   <polyline fill="none" points="195.197,160.784 303.182,160.784" stroke="#262626" stroke-dasharray="16,0" stroke-linecap="square" stroke-linejoin="miter" stroke-width="0.5"/>
   <polyline fill="none" points="195.197,72.7965 303.182,72.7965" stroke="#262626" stroke-dasharray="16,0" stroke-linecap="square" stroke-linejoin="miter" stroke-width="0.5"/>
   <polyline fill="none" points="195.197,160.784 195.197,72.7965" stroke="#262626" stroke-dasharray="16,0" stroke-linecap="square" stroke-linejoin="miter" stroke-width="0.5"/>
   <polyline fill="none" points="303.182,160.784 303.182,72.7965" stroke="#262626" stroke-dasharray="16,0" stroke-linecap="square" stroke-linejoin="miter" stroke-width="0.5"/>
   <polyline fill="none" points="199.195,81.7947 219.186,81.7947" stroke="#cccccc" stroke-linecap="butt" stroke-linejoin="round" stroke-width="2"/>
   <g font-family="'Liberation Sans'" font-size="9" font-style="normal" font-weight="normal" transform="translate(223.184,86.7948) rotate(-0,-0,-5)" xml:space="preserve">
    <text fill="rgb(0,0,0)" x="0 6 11 16 21 26 31 37 42 45 50 55 60 65 71 " y="-2">Исходные данные</text>
   </g>
   <polyline fill="none" points="199.195,95.793 219.186,95.793" stroke="#d85218" stroke-linecap="butt" stroke-linejoin="round" stroke-width="2"/>
   <g font-family="'Liberation Sans'" font-size="9" font-style="normal" font-weight="normal" transform="translate(223.184,100.793) rotate(-0,-0,-5)" xml:space="preserve">
    <text fill="rgb(0,0,0)" x="0 6 9 14 17 22 25 31 36 41 " y="-2">T = 1 День</text>
   </g>
   <polyline fill="none" points="199.195,109.791 219.186,109.791" stroke="#ecb01f" stroke-linecap="butt" stroke-linejoin="round" stroke-width="2"/>
   <g font-family="'Liberation Sans'" font-size="9" font-style="normal" font-weight="normal" transform="translate(223.184,114.791) rotate(-0,-0,-5)" xml:space="preserve">
    <text fill="rgb(0,0,0)" x="0 6 9 14 17 22 25 32 37 42 47 52 " y="-2">T = 1 Неделя</text>
   </g>
   <polyline fill="none" points="199.195,123.789 219.186,123.789" stroke="#7d2e8d" stroke-linecap="butt" stroke-linejoin="round" stroke-width="2"/>
   <g font-family="'Liberation Sans'" font-size="9" font-style="normal" font-weight="normal" transform="translate(223.184,128.79) rotate(-0,-0,-5)" xml:space="preserve">
    <text fill="rgb(0,0,0)" x="0 6 9 14 17 22 25 33 38 43 48 " y="-2">T = 1 Месяц</text>
   </g>
   <polyline fill="none" points="199.195,137.788 219.186,137.788" stroke="#76ab2f" stroke-linecap="butt" stroke-linejoin="round" stroke-width="2"/>
   <g font-family="'Liberation Sans'" font-size="9" font-style="normal" font-weight="normal" transform="translate(223.184,142.788) rotate(-0,-0,-5)" xml:space="preserve">
    <text fill="rgb(0,0,0)" x="0 6 9 14 17 22 25 33 38 43 48 53 " y="-2">T = 3 Месяца</text>
   </g>
   <polyline fill="none" points="199.195,151.786 219.186,151.786" stroke="#4cbded" stroke-linecap="butt" stroke-linejoin="round" stroke-width="2"/>
   <g font-family="'Liberation Sans'" font-size="9" font-style="normal" font-weight="normal" transform="translate(223.184,156.786) rotate(-0,-0,-5)" xml:space="preserve">
    <text fill="rgb(0,0,0)" x="0 6 9 14 17 22 25 30 35 " y="-2">T = 1 Год</text>
   </g>
  </g>
 </g>
</svg>
